<svg width="441" height="270" viewBox="0 0 441 270" fill="none" xmlns="http://www.w3.org/2000/svg">
<path d="M33.1793 269.865L32.7152 268.932C38.938 265.275 46.6827 260.723 50.7278 253.253C54.7154 245.889 54.8049 235.889 50.9613 227.156C47.6904 219.724 41.6818 213.065 33.5854 207.899C31.9883 206.88 30.3119 205.915 28.6906 204.981C24.7718 202.724 20.7195 200.389 17.3782 197.078C12.7761 192.517 9.2941 184.863 11.8894 178.045C12.7429 175.869 14.1407 173.996 15.9242 172.64C17.7076 171.284 19.8051 170.498 21.9787 170.373L22.0337 171.432C20.0425 171.547 18.1208 172.266 16.4866 173.507C14.8524 174.749 13.5712 176.464 12.7884 178.457C10.3767 184.793 13.6855 191.982 18.0357 196.294C21.2857 199.515 25.2825 201.817 29.1476 204.044C30.7781 204.983 32.4642 205.954 34.0795 206.985C42.3444 212.258 48.4865 219.074 51.8416 226.698C55.8234 235.745 55.7189 246.127 51.5688 253.791C47.3859 261.515 39.5087 266.145 33.1793 269.865Z" fill="#F1F1F1"/>
<path d="M28.1636 175.963C32.8795 175.963 36.7025 173.945 36.7025 171.455C36.7025 168.966 32.8795 166.948 28.1636 166.948C23.4477 166.948 19.6248 168.966 19.6248 171.455C19.6248 173.945 23.4477 175.963 28.1636 175.963Z" fill="#F1F1F1"/>
<path d="M34.9947 205.66C39.7106 205.66 43.5336 203.641 43.5336 201.152C43.5336 198.663 39.7106 196.644 34.9947 196.644C30.2789 196.644 26.4559 198.663 26.4559 201.152C26.4559 203.641 30.2789 205.66 34.9947 205.66Z" fill="#F1F1F1"/>
<path d="M19.3808 210.432C24.0967 210.432 27.9197 208.414 27.9197 205.925C27.9197 203.435 24.0967 201.417 19.3808 201.417C14.6649 201.417 10.8419 203.435 10.8419 205.925C10.8419 208.414 14.6649 210.432 19.3808 210.432Z" fill="#F1F1F1"/>
<path d="M43.7776 235.356C48.4935 235.356 52.3165 233.338 52.3165 230.849C52.3165 228.359 48.4935 226.341 43.7776 226.341C39.0617 226.341 35.2387 228.359 35.2387 230.849C35.2387 233.338 39.0617 235.356 43.7776 235.356Z" fill="#F1F1F1"/>
<path d="M60.8553 235.356C65.5712 235.356 69.3942 233.338 69.3942 230.849C69.3942 228.359 65.5712 226.341 60.8553 226.341C56.1395 226.341 52.3165 228.359 52.3165 230.849C52.3165 233.338 56.1395 235.356 60.8553 235.356Z" fill="#F1F1F1"/>
<path d="M441 8.18222H166.392V149.802H441V8.18222Z" fill="#E6E6E6"/>
<path d="M433.148 20.3264H174.244V138.485H433.148V20.3264Z" fill="white"/>
<path d="M440.883 0H166.275V12.6791H440.883V0Z" fill="#ECECF1"/>
<path d="M174.944 8.21469C176.138 8.21469 177.106 7.16255 177.106 5.86467C177.106 4.56679 176.138 3.51465 174.944 3.51465C173.75 3.51465 172.782 4.56679 172.782 5.86467C172.782 7.16255 173.75 8.21469 174.944 8.21469Z" fill="white"/>
<path d="M183.151 8.21469C184.346 8.21469 185.314 7.16255 185.314 5.86467C185.314 4.56679 184.346 3.51465 183.151 3.51465C181.957 3.51465 180.989 4.56679 180.989 5.86467C180.989 7.16255 181.957 8.21469 183.151 8.21469Z" fill="white"/>
<path d="M191.359 8.21469C192.553 8.21469 193.521 7.16255 193.521 5.86467C193.521 4.56679 192.553 3.51465 191.359 3.51465C190.165 3.51465 189.197 4.56679 189.197 5.86467C189.197 7.16255 190.165 8.21469 191.359 8.21469Z" fill="white"/>
<path d="M290.045 48.3676C289.767 48.3676 289.501 48.4875 289.304 48.701C289.108 48.9146 288.997 49.2041 288.997 49.5061C288.997 49.808 289.108 50.0976 289.304 50.3111C289.501 50.5246 289.767 50.6446 290.045 50.6446H347.526C347.804 50.6446 348.07 50.5246 348.266 50.3111C348.463 50.0976 348.573 49.808 348.573 49.5061C348.573 49.2041 348.463 48.9146 348.266 48.701C348.07 48.4875 347.804 48.3676 347.526 48.3676H290.045Z" fill="#E6E6E6"/>
<path d="M290.045 55.1992C289.768 55.1998 289.502 55.3201 289.306 55.5335C289.11 55.7469 289 56.0362 289 56.3377C289 56.6392 289.11 56.9284 289.306 57.1419C289.502 57.3553 289.768 57.4755 290.045 57.4762H319.39C319.668 57.4755 319.933 57.3553 320.129 57.1419C320.325 56.9284 320.435 56.6392 320.435 56.3377C320.435 56.0362 320.325 55.7469 320.129 55.5335C319.933 55.3201 319.668 55.1998 319.39 55.1992H290.045Z" fill="#E6E6E6"/>
<path d="M288.599 88.2652C288.321 88.2652 288.054 88.3851 287.858 88.5987C287.661 88.8122 287.551 89.1017 287.551 89.4037C287.551 89.7056 287.661 89.9952 287.858 90.2087C288.054 90.4222 288.321 90.5422 288.599 90.5422H396.375C396.653 90.5422 396.92 90.4222 397.116 90.2087C397.312 89.9952 397.423 89.7056 397.423 89.4037C397.423 89.1017 397.312 88.8122 397.116 88.5987C396.92 88.3851 396.653 88.2652 396.375 88.2652H288.599Z" fill="#E6E6E6"/>
<path d="M288.599 95.0968C288.321 95.0975 288.055 95.2177 287.859 95.4311C287.663 95.6446 287.553 95.9338 287.553 96.2353C287.553 96.5368 287.663 96.826 287.859 97.0395C288.055 97.2529 288.321 97.3731 288.599 97.3738H368.24C368.517 97.3731 368.783 97.2529 368.979 97.0395C369.175 96.826 369.285 96.5368 369.285 96.2353C369.285 95.9338 369.175 95.6446 368.979 95.4311C368.783 95.2177 368.517 95.0975 368.24 95.0968H288.599Z" fill="#E6E6E6"/>
<path d="M288.599 101.774C288.321 101.775 288.055 101.895 287.859 102.108C287.663 102.322 287.553 102.611 287.553 102.912C287.553 103.214 287.663 103.503 287.859 103.717C288.055 103.93 288.321 104.05 288.599 104.051H396.375C396.653 104.05 396.919 103.93 397.114 103.717C397.31 103.503 397.42 103.214 397.42 102.912C397.42 102.611 397.31 102.322 397.114 102.108C396.919 101.895 396.653 101.775 396.375 101.774H288.599Z" fill="#E6E6E6"/>
<path d="M288.599 108.605C288.321 108.606 288.055 108.726 287.859 108.94C287.663 109.153 287.553 109.442 287.553 109.744C287.553 110.045 287.663 110.335 287.859 110.548C288.055 110.762 288.321 110.882 288.599 110.882H368.24C368.517 110.882 368.783 110.762 368.979 110.548C369.175 110.335 369.285 110.045 369.285 109.744C369.285 109.442 369.175 109.153 368.979 108.94C368.783 108.726 368.517 108.606 368.24 108.605H288.599Z" fill="#E6E6E6"/>
<path d="M232.252 92.8857C237.29 92.8857 241.374 88.4472 241.374 82.9721C241.374 77.4969 237.29 73.0585 232.252 73.0585C227.214 73.0585 223.13 77.4969 223.13 82.9721C223.13 88.4472 227.214 92.8857 232.252 92.8857Z" fill="#A0616A"/>
<path d="M229.364 75.0412C229.364 75.0412 233.62 76.2804 235.825 76.7761C238.029 77.2718 237.801 75.8673 237.801 75.8673C237.801 75.8673 240.69 76.2804 240.538 75.9499C240.385 75.6195 241.754 73.8846 240.157 71.9019C238.561 69.9191 239.017 68.4321 239.017 68.4321H237.649L237.269 67.8538H235.141C235.141 67.8538 232.787 65.6112 228.607 66.2721C224.426 66.933 219.482 68.6799 219.026 71.4062C218.964 71.776 218.882 72.1868 218.788 72.6207C217.645 77.8661 220.074 82.7741 222.593 87.4175C223.212 88.5586 226.207 91.047 226.13 89.3397C226.054 87.6325 223.434 83.7982 225.259 83.5503C227.083 83.3025 230.2 78.2631 229.364 75.0412Z" fill="#2F2E41"/>
<path d="M227.078 115.021C225.317 114.868 223.571 114.556 221.857 114.089L221.953 112.112L222.752 96.3925L222.759 96.272H238.827L241.349 110.746L241.689 112.698C241.023 112.98 240.35 113.245 239.663 113.478C239.655 113.478 239.655 113.486 239.648 113.486C238.694 113.807 237.726 114.089 236.749 114.322C235.451 114.626 234.138 114.846 232.816 114.981C231.793 115.091 230.767 115.145 229.74 115.141C228.852 115.141 227.958 115.101 227.078 115.021Z" fill="#ECECF1"/>
<path d="M216.747 112.224C216.082 111.911 215.439 111.573 214.803 111.22L214.529 111.067C214.344 110.963 214.152 110.85 213.967 110.737C213.716 110.585 213.472 110.432 213.235 110.279C213.006 110.135 212.769 109.982 212.54 109.829C212.525 109.821 212.518 109.813 212.503 109.813C211.705 109.259 210.921 108.688 210.167 108.069C210.041 107.965 209.915 107.861 209.789 107.756L209.656 105.442L209.848 105.313L222.752 96.3925L222.929 96.2719L222.944 96.2639L224.763 96.2719V103.633C225.791 105.249 226.486 108.632 226.915 113.06C226.974 113.695 227.026 114.346 227.078 115.021C225.317 114.868 223.571 114.556 221.857 114.089C221.672 114.049 221.495 114 221.31 113.944C220.232 113.638 219.171 113.267 218.13 112.835C217.812 112.706 217.502 112.57 217.191 112.433L217.162 112.417C217.028 112.353 216.881 112.289 216.747 112.224Z" fill="#2F2E41"/>
<path d="M213.967 110.738C213.716 110.585 213.472 110.432 213.235 110.279C213.006 110.135 212.769 109.982 212.54 109.829C212.525 109.821 212.518 109.813 212.503 109.813C211.705 109.259 210.921 108.688 210.167 108.069C210.041 107.965 209.915 107.861 209.789 107.756C209.73 107.7 209.671 107.652 209.604 107.595C209.131 107.202 208.673 106.792 208.229 106.358C208.207 106.342 208.192 106.318 208.17 106.301C208.618 105.927 209.12 105.636 209.656 105.442L210.181 105.61L213.923 106.832L213.945 108.479L213.967 110.738Z" fill="#2F2E41"/>
<path d="M245.475 110.762C245.253 110.89 245.031 111.019 244.809 111.139C244.757 111.172 244.713 111.196 244.669 111.22C244.373 111.38 244.085 111.541 243.789 111.694C243.781 111.702 243.767 111.702 243.767 111.71C243.752 111.718 243.73 111.726 243.715 111.734C243.05 112.08 242.377 112.401 241.689 112.698C241.023 112.98 240.35 113.245 239.663 113.478C239.655 113.478 239.655 113.486 239.648 113.486C238.694 113.807 237.725 114.089 236.749 114.322C236.738 113.662 236.818 113.003 236.986 112.369L236.993 112.256L237.629 101.07L236.779 96.272L239.219 95.8782L252.64 103.73C252.64 103.73 251.161 105.337 245.09 108.761C244.553 109.063 245.342 110.071 245.475 110.762Z" fill="#2F2E41"/>
<path d="M232.653 113.052C231.691 113.148 230.716 113.197 229.74 113.197C228.793 113.197 227.854 113.156 226.915 113.06C226.974 113.695 227.026 114.346 227.078 115.021C227.957 115.101 228.852 115.141 229.74 115.141C230.767 115.145 231.793 115.091 232.815 114.981C234.138 114.846 235.451 114.626 236.749 114.322C236.738 113.662 236.818 113.003 236.986 112.369L236.993 112.256C235.566 112.634 234.115 112.9 232.653 113.052ZM260.596 67.9517C259.034 63.0735 256.511 58.6245 253.204 54.9148C249.896 51.2051 245.885 48.3241 241.448 46.4727C237.011 44.6212 232.256 43.8439 227.514 44.1949C222.772 44.5459 218.158 46.0168 213.993 48.505C209.828 50.9932 206.213 54.4389 203.399 58.6017C200.585 62.7645 198.641 67.5442 197.701 72.6076C196.762 77.671 196.85 82.8962 197.96 87.9188C199.069 92.9414 201.173 97.6405 204.125 101.689C204.421 102.09 204.724 102.492 205.035 102.878C205.064 102.91 205.079 102.934 205.101 102.958C205.865 103.915 206.677 104.825 207.534 105.683C207.741 105.892 207.955 106.101 208.17 106.301C208.192 106.317 208.207 106.342 208.229 106.358C208.673 106.792 209.131 107.201 209.604 107.595C209.671 107.652 209.73 107.7 209.789 107.756C209.915 107.861 210.041 107.965 210.166 108.069C210.921 108.688 211.705 109.259 212.503 109.813C212.518 109.813 212.525 109.821 212.54 109.829C212.769 109.982 213.006 110.135 213.235 110.279C213.472 110.432 213.716 110.585 213.967 110.737C214.152 110.85 214.344 110.963 214.529 111.067L214.803 111.22C215.439 111.573 216.082 111.911 216.747 112.224C216.881 112.289 217.028 112.353 217.162 112.417L217.191 112.433C217.502 112.57 217.812 112.706 218.13 112.835C219.171 113.267 220.232 113.638 221.31 113.944C221.495 114 221.672 114.049 221.857 114.089C223.57 114.556 225.317 114.868 227.078 115.021C227.957 115.101 228.852 115.141 229.74 115.141C230.767 115.145 231.793 115.091 232.815 114.981C234.138 114.846 235.451 114.626 236.749 114.322C237.725 114.089 238.694 113.807 239.648 113.486C239.655 113.486 239.655 113.478 239.663 113.478C240.35 113.245 241.023 112.98 241.689 112.698C242.376 112.401 243.049 112.08 243.715 111.734C243.73 111.726 243.752 111.718 243.767 111.71C243.767 111.702 243.781 111.702 243.789 111.694C244.085 111.541 244.373 111.38 244.669 111.22C244.713 111.196 244.757 111.172 244.809 111.139C245.031 111.019 245.253 110.89 245.475 110.762C245.489 110.754 245.497 110.746 245.512 110.738C246.096 110.384 246.673 110.014 247.242 109.62C247.397 109.516 247.553 109.412 247.708 109.291C247.937 109.138 248.159 108.97 248.373 108.801C248.662 108.584 248.95 108.359 249.231 108.126C249.325 108.06 249.413 107.988 249.497 107.909C250.185 107.346 250.85 106.751 251.486 106.125C256.309 101.455 259.748 95.3351 261.37 88.5402C262.991 81.7453 262.722 74.5803 260.596 67.9517L260.596 67.9517ZM250.932 104.051C250.131 104.87 249.292 105.642 248.418 106.366C248.226 106.526 248.026 106.687 247.826 106.832C247.634 106.993 247.442 107.145 247.242 107.29C247.072 107.418 246.902 107.547 246.724 107.668C246.71 107.684 246.688 107.692 246.673 107.708C246.547 107.804 246.414 107.893 246.288 107.981C245.896 108.246 245.49 108.511 245.09 108.761C244.994 108.817 244.905 108.881 244.809 108.937C244.757 108.97 244.706 109.002 244.646 109.034C244.425 109.17 244.203 109.291 243.981 109.42C243.951 109.444 243.915 109.452 243.885 109.476C243.874 109.478 243.864 109.483 243.855 109.492C243.7 109.58 243.545 109.661 243.39 109.741C243.256 109.813 243.131 109.886 242.998 109.95C242.458 110.231 241.903 110.496 241.349 110.746C240.764 111.003 240.173 111.236 239.574 111.453C239.426 111.509 239.271 111.573 239.115 111.621C238.413 111.863 237.711 112.08 236.993 112.256C235.566 112.634 234.115 112.9 232.653 113.052C231.692 113.148 230.716 113.197 229.74 113.197C228.793 113.197 227.854 113.156 226.915 113.06C225.24 112.893 223.58 112.576 221.953 112.112C221.894 112.096 221.828 112.08 221.768 112.063C220.434 111.685 219.126 111.202 217.857 110.617C217.79 110.585 217.716 110.561 217.657 110.529C217.583 110.496 217.517 110.472 217.457 110.44C217.383 110.408 217.317 110.376 217.25 110.344C216.696 110.079 216.156 109.789 215.616 109.492L215.365 109.347C214.884 109.074 214.411 108.793 213.945 108.479C213.782 108.383 213.612 108.27 213.45 108.158C213.265 108.037 213.08 107.909 212.902 107.78C212.858 107.748 212.814 107.716 212.769 107.684C212.355 107.378 211.934 107.073 211.535 106.743C211.254 106.518 210.98 106.301 210.706 106.068C210.529 105.924 210.351 105.771 210.181 105.61C210.07 105.522 209.96 105.417 209.848 105.313C209.701 105.176 209.553 105.04 209.405 104.895C209.176 104.694 208.961 104.469 208.754 104.26C207.921 103.426 207.134 102.541 206.395 101.608C206.144 101.303 205.907 100.997 205.678 100.676C205.625 100.613 205.575 100.545 205.53 100.475C201.808 95.3676 199.533 89.193 198.984 82.7046C198.436 76.2162 199.636 69.6945 202.44 63.9351C205.243 58.1756 209.528 53.4275 214.773 50.2699C220.017 47.1122 225.993 45.6816 231.973 46.1526C237.952 46.6236 243.676 48.9759 248.447 52.9223C253.217 56.8688 256.828 62.2389 258.838 68.3775C260.848 74.5161 261.171 81.1578 259.767 87.4924C258.363 93.827 255.293 99.5806 250.932 104.051L250.932 104.051Z" fill="#3F3D56"/>
<path d="M79.7463 263.399L85.7284 263.399L88.5741 238.322L79.7454 238.322L79.7463 263.399Z" fill="#A0616A"/>
<path d="M78.2206 261.277L90.0013 261.276H90.0018C91.9929 261.276 93.9024 262.136 95.3103 263.666C96.7182 265.196 97.5093 267.271 97.5094 269.435V269.7L78.2209 269.701L78.2206 261.277Z" fill="#2F2E41"/>
<path d="M102.191 263.399L108.173 263.399L111.019 238.322L102.19 238.322L102.191 263.399Z" fill="#A0616A"/>
<path d="M100.666 261.277L112.446 261.276H112.447C114.438 261.276 116.347 262.136 117.755 263.666C119.163 265.196 119.954 267.271 119.954 269.435V269.7L100.666 269.701L100.666 261.277Z" fill="#2F2E41"/>
<path d="M61.5954 164.308C62.0849 163.739 62.4536 163.059 62.6754 162.318C62.8973 161.576 62.9668 160.791 62.8792 160.017C62.7916 159.244 62.5489 158.5 62.1684 157.839C61.7878 157.179 61.2785 156.616 60.6764 156.193L64.8328 137.789L56.2976 141.094L53.6592 158.064C53.0712 159.211 52.8906 160.552 53.1516 161.833C53.4126 163.115 54.0971 164.248 55.0753 165.017C56.0536 165.787 57.2576 166.14 58.4593 166.009C59.661 165.879 60.7768 165.273 61.5954 164.308Z" fill="#9E616A"/>
<path d="M125.096 162.717C124.606 162.148 124.238 161.468 124.016 160.727C123.794 159.985 123.724 159.2 123.812 158.426C123.9 157.653 124.142 156.909 124.523 156.248C124.903 155.588 125.413 155.026 126.015 154.602L121.858 136.198L130.394 139.503L133.032 156.473C133.62 157.62 133.801 158.961 133.54 160.242C133.279 161.524 132.594 162.657 131.616 163.426C130.638 164.196 129.434 164.549 128.232 164.418C127.03 164.288 125.914 163.682 125.096 162.717Z" fill="#9E616A"/>
<path d="M69.466 151.408L77.7575 256.972L89.8895 255.77L94.745 174.183L99.0671 206.488L99.9327 257.803L110.911 257.007L117.008 201.803L115.512 148.34L73.834 143.753L69.466 151.408Z" fill="#ECECF1"/>
<path d="M92.2746 55.3465C99.2233 55.3465 104.856 49.2244 104.856 41.6723C104.856 34.1203 99.2233 27.9981 92.2746 27.9981C85.3259 27.9981 79.6928 34.1203 79.6928 41.6723C79.6928 49.2244 85.3259 55.3465 92.2746 55.3465Z" fill="#A0616A"/>
<path d="M88.2903 30.733C88.2903 30.733 94.1619 32.4422 97.2024 33.126C100.243 33.8097 99.9285 31.8725 99.9285 31.8725C99.9285 31.8725 103.913 32.4422 103.703 31.9864C103.493 31.5306 105.381 29.1376 103.179 26.4028C100.977 23.6679 101.606 21.6168 101.606 21.6168H99.7188L99.1946 20.8192H96.2588C96.2588 20.8192 93.013 17.7259 87.2464 18.6375C81.4797 19.5491 74.66 21.9587 74.0309 25.7191C73.9456 26.2291 73.8333 26.7958 73.7028 27.3943C72.126 34.6295 75.4764 41.3992 78.9515 47.804C79.8055 49.3781 83.9365 52.8104 83.8308 50.4555C83.7251 48.1006 80.1121 42.8118 82.6285 42.47C85.1449 42.1281 89.4437 35.1771 88.2903 30.733Z" fill="#2F2E41"/>
<path d="M79.182 60.0176H101.34L117.008 149.943C117.008 149.943 103.348 151.213 95.5413 154.394C87.7344 157.576 74.756 147.126 74.756 147.126L79.182 60.0176Z" fill="#394849"/>
<path d="M81.9482 70.1727V60.0176L79.4394 60.0009L61.1091 72.6672L65.0866 142.064C65.0866 142.064 69.7942 165.216 76.9345 164.975C84.0748 164.735 89.5804 82.2005 81.9482 70.1727Z" fill="#ECECF1"/>
<path d="M66.997 74.5842L61.1092 72.6672C61.1092 72.6672 56.7504 74.0539 56.7504 78.8266C56.7504 83.5993 52.9948 151.408 52.9948 151.408L64.9252 152.554L67.485 118.069L66.997 74.5842Z" fill="#ECECF1"/>
<path d="M99.6887 66.6297L98.5151 60.0176L101.884 59.4706L114.083 64.7736C114.083 64.7736 125.061 152.008 120.182 154.66C115.303 157.311 112.008 155.257 112.008 155.257C112.008 155.257 95.9594 90.9175 98.7999 82.2206L99.6887 66.6297Z" fill="#ECECF1"/>
<path d="M105.544 66.0994L107.626 65.1146C107.626 65.1146 113.736 61.8237 117.203 68.4691C120.67 75.1145 132.868 149.357 132.868 149.357L122.831 151.408L115.328 124.689L105.544 66.0994Z" fill="#ECECF1"/>
<path d="M186.392 270H0.487936C0.358527 270 0.234419 269.944 0.142913 269.845C0.051407 269.745 0 269.61 0 269.47C0 269.329 0.051407 269.194 0.142913 269.095C0.234419 268.995 0.358527 268.939 0.487936 268.939H186.392C186.521 268.939 186.645 268.995 186.737 269.095C186.828 269.194 186.879 269.329 186.879 269.47C186.879 269.61 186.828 269.745 186.737 269.845C186.645 269.944 186.521 270 186.392 270Z" fill="#CACACA"/>
</svg>
